<?xml version="1.0" encoding="UTF-8"?>
<svg id="_圖層_1" data-name="圖層_1" xmlns="http://www.w3.org/2000/svg" xmlns:xlink="http://www.w3.org/1999/xlink" version="1.1" viewBox="0 0 960 200">
  <!-- Generator: Adobe Illustrator 29.5.1, SVG Export Plug-In . SVG Version: 2.1.0 Build 141)  -->
  <defs>
    <style>
      .st0 {
        fill: #fff;
      }

      .st1 {
        fill: url(#Degradado_sin_nombre);
      }

      .st2 {
        fill: #fff;
      }

      .st3 {
        fill: url(#Degradado_sin_nombre1);
      }
    </style>
    <linearGradient id="Degradado_sin_nombre" data-name="Degradado sin nombre" x1="115.91" y1="32.9" x2="105.65" y2="198.9" gradientUnits="userSpaceOnUse">
      <stop offset="0" stop-color="#fff"/>
      <stop offset=".21" stop-color="#fff"/>
      <stop offset=".64" stop-color="#fff"/>
      <stop offset="1" stop-color="#fff"/>
    </linearGradient>
    <linearGradient id="Degradado_sin_nombre1" data-name="Degradado sin nombre" x1="216.87" y1="33.56" x2="153.59" y2="243.69" gradientTransform="translate(-2.77 -97.06) rotate(15.59)" xlink:href="#Degradado_sin_nombre"/>
  </defs>
  <g>
    <path class="st2" d="M119.23,67.1c-5.89,5.39-13.13,7.48-16.09,4.69-2.92-2.75-.56-9.2,5.21-14.43,5.74-5.2,12.81-7.33,15.86-4.74,3.09,2.63.89,9.11-4.98,14.48Z"/>
    <g>
      <path class="st0" d="M93.82,143.67c-14.57-1.06-26.77-6.78-34.38-17.06-5.43-7.34-7.89-16.18-7.84-25.61-3.08,16.65-.66,33.01,8.66,46.14,7.84,11.04,19.52,18.35,33.55,21.77v-25.25Z"/>
      <path class="st0" d="M209.76,17.69c-17.17-12.15-40.91-14.33-64.45-8.59,15.4-1.84,29.94.78,40.66,8.76,26.22,19.52,19.79,63.58-18,97.04-13.74,12.17-29.3,20.65-44.58,25.17l-4.21,30.83c24.92-1.67,52.16-13,74.9-33.46,45.48-40.93,49.89-95.54,15.67-119.75Z"/>
    </g>
    <path class="st1" d="M104.89,193.93l-1.67-116.8c.22.08.46.11.72.15,5.26.76,12.45-2.21,18.27-7.53.53-.48,1.03-.96,1.47-1.47l-18.8,125.65Z"/>
    <path class="st3" d="M145.85,14.71s28.64,17.23-13.09,46.35l-8.02,64.46c70.17-28.53,91.68-107.7,21.11-110.81Z"/>
  </g>
  <g>
    <g>
      <path class="st0" d="M336.6,53.09c0,24.31-1.31,38.04-4.47,49.93-2.18,7.85-4.8,13.52-10.36,22.02-3.6-4.58-5.34-6.43-8.72-9.38-9.37,1.96-26.93,4.8-39.68,6.43-2.62.33-3.82.54-5.89.98l-2.4-16.24c1.31.11,1.96.11,2.94.11,1.85,0,3.05-.11,7.96-.44-1.09-3.27-2.4-6-4.47-9.38l12.21-3.82h-3.6c-5.01,0-7.85.11-10.79.33.33-2.94.44-5.34.44-9.16v-6.65c0-3.71-.11-6.1-.44-9.16,2.73.22,5.45.33,10.79.33h24.42c5.23,0,8.07-.11,10.79-.33-.33,2.62-.33,5.01-.33,9.16v6.65c0,4.36,0,6.87.33,9.16-3.05-.22-5.78-.33-10.79-.33h-3.38l10.68,3.16c-1.09,2.73-1.64,3.82-2.94,6.43,1.85-.33,2.4-.33,6.87-1.2,2.07-5.23,3.05-9.59,3.92-16.35s1.42-17.22,1.42-26.16v-24.75c0-3.81-.22-7.19-.55-10.25,2.29.22,4.36.33,8.18.33h20.38c4.25,0,6.21-.11,8.5-.33-.22,2.73-.33,5.78-.33,10.36v70.75c0,.98.22,1.31,1.2,1.31,1.85,0,1.96-1.31,2.07-22.67,4.91,3.16,5.78,3.71,8.83,5.01-.22,15.81-1.09,24.42-2.94,28.56-1.64,3.71-4.58,4.91-11.88,4.91-9.92,0-12.75-2.18-12.75-9.81V39.58h-5.23v13.52ZM265.2,52c4.03.33,6.76.44,12.43.44h28.34c5.78,0,8.61-.11,12.54-.44v14.28c-4.36-.22-6.76-.33-12.54-.33h-28.34c-5.12,0-8.5.11-12.43.33v-14.28ZM285.15,28.57c0-3.05-.11-4.69-.44-6.98h15.7c-.44,2.62-.44,4.03-.44,7.19v6.54h4.36v-4.47c0-2.83-.11-3.71-.33-5.23h13.19c-.22,1.74-.33,3.49-.33,6v11.23c0,3.05,0,4.69.33,6.32q-2.4-.11-7.41-.11h-34.67c-3.05,0-5.01.11-7.52.22.11-.76.11-2.94.22-6.43v-11.12c0-2.51-.11-4.36-.44-6.1h13.41c-.33,1.64-.33,2.83-.33,5.23v4.47h4.69v-6.76ZM286.9,93.32q.22.54,1.96,3.82c.54,1.09,1.2,2.4,2.18,4.91l-12.43,4.25q6.43-.54,14.61-1.42c1.53-3.92,2.62-7.52,3.49-11.56h-9.81ZM285.04,83.07h15.48v-3.82h-15.48v3.82Z"/>
      <path class="st0" d="M377.92,38.16c0-5.45-.11-7.52-.44-11.77,2.94.33,4.69.44,9.16.44h18.42c4.25,0,6.32-.11,9.05-.33-.22,2.4-.22,4.47-.22,10.79v64.97c0,6.43,0,8.18.22,11.45h-15.15v-5.45h-5.89v9.48h-15.81c.55-3.71.65-7.3.65-14.39V38.16ZM393.18,59.85h5.89v-18.42h-5.89v18.42ZM393.18,93.21h5.89v-19.08h-5.89v19.08ZM428.17,88.3c-5.34.11-7.96.22-11.88.54v-15.92c2.83.33,6.43.44,12.86.44h20.93v-6h-20.93c-4.47,0-9.48.22-12.86.54v-15.7c2.51.33,7.52.54,13.08.54h8.07v-6.54h-6.21c-2.29.11-5.23.11-8.61.22-1.09,0-2.18,0-4.14.22v-15.92c3.38.44,7.09.65,12.21.65h6.76v-2.07c0-3.16-.11-5.34-.54-7.63h17.11c-.33,2.18-.54,4.36-.54,7.52v2.18h8.18c4.91,0,8.83-.22,12.1-.65v15.92c-3.27-.33-6.1-.44-11.88-.44h-8.39v6.54h10.68c5.34,0,10.14-.22,12.64-.54v15.7c-3.16-.44-5.56-.54-10.79-.54v6c5.67,0,7.96-.11,10.25-.44v15.92c-3.16-.44-5.01-.54-10.25-.54v21.58c0,10.03-4.91,13.3-19.73,13.3-1.09,0-4.36-.11-8.39-.11-.65-6.32-1.42-9.81-3.05-13.84l-4.36,3.38c-4.36-7.74-7.52-12.1-13.08-17.88l10.79-6.43ZM432.43,88.3c4.47,4.25,7.74,8.18,11.34,13.95l-6.98,5.45c4.36.44,6.65.55,9.37.55,3.05,0,3.92-.65,3.92-2.73v-17.22h-17.66Z"/>
      <path class="st0" d="M520.4,108.58c0,6.1.22,10.9.65,14.83h-17.88c.44-3.71.65-8.29.65-15.04v-30.2c-3.71,3.6-6.21,5.78-11.99,10.25-3.38-7.09-5.78-10.79-9.81-15.37,13.08-8.39,21.91-16.9,28.89-27.69h-11.77c-5.89,0-10.03.22-13.95.65v-16.46c3.92.44,8.07.65,13.95.65h19.19c1.42-3.81,2.18-6.65,2.62-9.92l18.64,1.85c-.44,1.09-1.53,3.82-3.16,8.07h34.56c6.1,0,10.25-.22,13.95-.65v16.46c-4.03-.44-8.18-.65-13.95-.65h-41.53c-1.09,1.96-1.96,3.38-3.49,5.89h35.32c5.45,0,8.28-.11,11.34-.33-.44,3.27-.55,6.54-.55,12.1v47.2c0,5.34-1.74,8.94-5.45,10.9-2.83,1.42-7.08,2.07-14.39,2.07-2.83,0-5.01-.11-9.92-.33-.54-6.32-1.42-9.92-3.92-15.92,5.45.65,10.25,1.09,12.97,1.09,3.38,0,4.14-.54,4.14-3.05v-3.82h-35.1v7.41ZM555.5,70.32v-4.8h-35.1v4.8h35.1ZM555.5,88.2v-4.91h-35.1v4.91h35.1Z"/>
      <path class="st0" d="M636.28,36.2q-.11.22-.33.87c0,.11-.11.33-.22.76-1.63,5.45-5.34,14.93-9.05,22.56,6.54,10.46,8.28,15.59,8.28,24.09,0,6.1-2.83,11.12-7.52,13.41-2.94,1.31-6.98,2.07-12.21,2.18-.33-7.85-.87-10.68-2.83-15.7,1.31.22,1.96.33,2.94.33,3.27,0,4.14-.76,4.14-3.6,0-4.8-1.31-9.92-3.71-14.17-.87-1.64-1.31-2.29-3.6-5.34v46.98c0,5.34.22,10.03.54,14.83h-17.22c.44-3.6.65-8.94.65-14.83V35.65c0-2.62-.11-6.65-.44-11.99,2.4.33,4.14.44,8.61.44h17.01c5.01,0,6.76-.11,8.29-.54l6.65,9.16q-.11-4.36-.44-8.72c2.73.33,4.8.44,10.25.44h34.34c5.23,0,6.54-.11,9.81-.44-.33,2.18-.44,5.67-.44,12.21v27.58c0,5.67.11,7.85.44,12.21q-2.62-.11-5.12-.22l11.01,8.94c-.54.44-.87.65-5.56,4.91-2.18,1.96-5.67,4.8-8.72,6.98,4.69,5.12,8.72,8.18,15.15,11.55-3.6,4.8-5.67,8.72-8.29,16.02-5.34-3.16-7.52-4.8-11.12-8.18-3.81-3.38-6.54-6.43-9.05-9.92v8.18c-8.39,2.29-21.15,5.34-28.89,6.87-7.3,1.42-10.03,2.07-11.88,2.73l-2.62-17.22c2.18,0,4.58-.33,11.12-1.2V36.2ZM612.19,60.07c3.6-7.41,5.01-11.34,7.63-21.04h-7.63v21.04ZM652.3,43.83h21.58v-4.91h-21.58v4.91ZM652.3,62.25h21.58v-5.34h-21.58v5.34ZM652.3,102.47c4.47-.87,8.28-1.74,12.21-2.83-3.92-7.19-6.11-13.84-7.74-23.87h-4.47v26.71ZM671.82,75.77c.65,3.82,1.09,5.34,2.18,8.07,3.05-2.4,7.08-6.21,8.61-8.07h-10.79Z"/>
      <path class="st0" d="M749,29.22c-.76,1.09-1.74,2.83-2.94,5.45-3.82,8.28-10.68,18.64-17.77,27.03-5.45,6.43-9.92,10.79-17.22,16.68-3.81-6.98-6.54-10.9-10.9-15.92,11.01-7.52,19.08-16.02,25.4-26.92,3.16-5.45,4.8-9.27,5.56-13.08l17.88,6.76ZM784.53,124.28c-2.73-5.78-3.49-7.41-5.56-11.66-19.19,3.16-35.32,4.8-64.42,6.43-2.07.11-4.03.33-6.1.65l-2.62-18.64c2.29.22,4.25.33,7.96.33h5.89c6.21-10.68,11.12-20.38,15.37-30.2,4.47-9.92,5.45-12.97,6.65-18.64l19.51,4.8c-.76,1.31-.87,1.53-1.63,3.49-5.89,13.95-14.28,30.74-19.95,39.79,15.37-.76,23.33-1.42,31.29-2.62-3.6-6.1-7.85-11.99-11.55-16.57l14.72-8.07c10.9,14.39,19.51,27.8,26.71,41.64l-16.24,9.27ZM773.31,22.46c1.42,5.56,6.43,14.61,11.77,21.26,5.89,7.3,12.1,12.64,20.82,17.99-4.69,5.89-7.09,9.59-10.68,16.68-10.57-8.18-17.44-15.26-24.42-24.96-5.45-7.63-7.85-11.77-12.54-22.35q-.54-1.2-.98-1.96l16.02-6.65Z"/>
      <path class="st0" d="M905.21,107.27c0,12.86-3.92,15.59-23,15.59-2.72,0-5.67-.11-9.92-.33-1.31-7.09-2.29-10.36-5.01-17.01,6.54.76,11.66,1.09,16.68,1.09,3.27,0,4.58-.87,4.58-3.27v-63.44h-61.59c-7.85,0-11.01.11-14.93.54v-16.57c3.6.54,6.98.65,14.93.65h66.5c5.12,0,8.5-.11,12.32-.55-.44,4.25-.54,6.87-.54,11.99v71.29ZM815.93,44.7c2.83.33,4.69.44,9.48.44h47.2c4.91,0,6.87-.11,9.59-.44v15.92c-2.72-.44-4.91-.54-9.48-.54h-47.31c-4.69,0-6.76.11-9.48.54v-15.92ZM877.63,93.43c0,5.23.11,7.74.33,10.57-3.27-.22-5.67-.33-11.12-.33h-29.43v8.61h-16.9c.44-3.38.54-6.76.54-12.32v-24.74c0-4.03-.11-7.3-.54-10.36,2.94.22,5.78.33,10.57.33h35.43c5.78,0,8.61-.11,11.45-.33-.22,2.83-.33,5.34-.33,10.57v17.99ZM837.52,88.74h23.98v-8.83h-23.98v8.83Z"/>
    </g>
    <g>
      <path class="st2" d="M276.4,179.04v-29.89h-10.07v-6.01h27.37v6.01h-10.12v29.89h-7.17Z"/>
      <path class="st2" d="M299.56,179.04v-35.89h12.45c2.55,0,4.84.33,6.88.99,2.03.66,3.65,1.79,4.84,3.39,1.19,1.6,1.79,3.77,1.79,6.51s-.6,4.82-1.79,6.51c-1.2,1.7-2.81,2.94-4.84,3.73-2.03.79-4.33,1.19-6.88,1.19h-5.28v13.56h-7.17ZM306.72,159.81h4.65c2.33,0,4.09-.48,5.3-1.45s1.82-2.41,1.82-4.31-.6-3.29-1.82-4.04c-1.21-.76-2.98-1.14-5.3-1.14h-4.65v10.95ZM319.03,179.04l-8.33-15.4,5.04-4.46,11.33,19.86h-8.04Z"/>
      <path class="st2" d="M332.59,179.04v-35.89h7.17v35.89h-7.17Z"/>
      <path class="st2" d="M362.38,179.72c-2.23,0-4.2-.31-5.91-.94-1.71-.63-3.17-1.62-4.38-2.98s-2.12-3.1-2.74-5.23c-.61-2.13-.92-4.68-.92-7.65v-19.76h7.12v20.39c0,2.49.27,4.46.82,5.91.55,1.45,1.33,2.5,2.35,3.12,1.02.63,2.24.94,3.66.94s2.65-.32,3.68-.94c1.03-.63,1.83-1.67,2.4-3.12.56-1.45.85-3.42.85-5.91v-20.39h6.88v19.76c0,2.97-.31,5.52-.92,7.65-.61,2.13-1.52,3.88-2.71,5.23-1.19,1.36-2.65,2.35-4.36,2.98-1.71.63-3.65.94-5.81.94Z"/>
      <path class="st2" d="M384.8,179.04v-35.89h7.94l6.1,16.86c.39,1.07.76,2.19,1.11,3.37.35,1.18.71,2.33,1.07,3.46h.24c.39-1.13.76-2.28,1.11-3.46.35-1.18.69-2.3,1.02-3.37l6.01-16.86h7.94v35.89h-6.54v-14.97c0-1.16.05-2.44.15-3.83s.22-2.79.36-4.19c.15-1.4.28-2.66.41-3.75h-.19l-2.95,8.43-5.52,15.06h-4.12l-5.57-15.06-2.86-8.43h-.19c.13,1.1.26,2.35.39,3.75.13,1.41.25,2.8.36,4.19.11,1.39.17,2.66.17,3.83v14.97h-6.44Z"/>
      <path class="st2" d="M426.12,179.04v-35.89h11.77c2.65,0,5.03.36,7.14,1.07,2.11.71,3.79,1.88,5.04,3.51,1.24,1.63,1.87,3.87,1.87,6.71s-.62,4.95-1.87,6.71c-1.24,1.76-2.91,3.06-4.99,3.9-2.08.84-4.42,1.26-7,1.26h-4.8v12.74h-7.17ZM433.29,160.63h4.31c2.45,0,4.29-.52,5.5-1.55,1.21-1.03,1.82-2.58,1.82-4.65s-.64-3.51-1.91-4.33c-1.28-.82-3.16-1.24-5.64-1.24h-4.07v11.77Z"/>
      <path class="st2" d="M458.43,179.04v-35.89h7.17v14.19h13.56v-14.19h7.12v35.89h-7.12v-15.5h-13.56v15.5h-7.17Z"/>
      <path class="st2" d="M490.49,179.04l11.48-35.89h8.48l11.48,35.89h-7.56l-5.09-18.7c-.55-1.87-1.07-3.82-1.57-5.84-.5-2.02-1.03-3.98-1.57-5.88h-.19c-.45,1.94-.94,3.91-1.48,5.91s-1.06,3.94-1.57,5.81l-5.13,18.7h-7.27ZM497.61,169.84v-5.57h17.05v5.57h-17.05Z"/>
      <path class="st2" d="M526.14,179.04v-35.89h7.31l10.41,19.13,3.63,7.75h.24c-.19-1.87-.4-3.92-.63-6.15-.23-2.23-.34-4.36-.34-6.39v-14.34h6.78v35.89h-7.31l-10.32-19.18-3.63-7.7h-.24c.16,1.94.35,3.99.58,6.15.23,2.16.34,4.28.34,6.34v14.39h-6.83Z"/>
      <path class="st2" d="M569.54,179.04v-29.89h-10.08v-6.01h27.37v6.01h-10.12v29.89h-7.17Z"/>
      <path class="st2" d="M610.81,179.04v-29.89h-10.08v-6.01h27.37v6.01h-10.12v29.89h-7.17Z"/>
      <path class="st2" d="M633.96,179.04v-35.89h7.17v35.89h-7.17Z"/>
      <path class="st2" d="M649.94,179.04v-35.89h7.94l6.1,16.86c.39,1.07.76,2.19,1.11,3.37.35,1.18.71,2.33,1.07,3.46h.24c.39-1.13.76-2.28,1.11-3.46.35-1.18.69-2.3,1.02-3.37l6.01-16.86h7.94v35.89h-6.54v-14.97c0-1.16.05-2.44.15-3.83s.22-2.79.36-4.19c.15-1.4.28-2.66.41-3.75h-.19l-2.95,8.43-5.52,15.06h-4.12l-5.57-15.06-2.86-8.43h-.19c.13,1.1.26,2.35.39,3.75.13,1.41.25,2.8.36,4.19.11,1.39.17,2.66.17,3.83v14.97h-6.44Z"/>
      <path class="st2" d="M691.26,179.04v-35.89h21.99v6.01h-14.82v8.28h12.54v6.01h-12.54v9.59h15.35v6.01h-22.52Z"/>
      <path class="st2" d="M732.53,179.04v-35.5h4.46v31.68h15.55v3.83h-20Z"/>
      <path class="st2" d="M758.83,179.04v-35.5h4.46v35.5h-4.46Z"/>
      <path class="st2" d="M773.02,179.04v-35.5h5.38l6.78,18.99c.45,1.19.89,2.42,1.31,3.68.42,1.26.84,2.5,1.26,3.73h.19c.45-1.23.88-2.47,1.28-3.73.4-1.26.8-2.49,1.19-3.68l6.78-18.99h5.38v35.5h-4.17v-19.67c0-1.03.03-2.16.1-3.37.06-1.21.14-2.44.24-3.68.1-1.24.18-2.38.24-3.42h-.19l-2.86,8.09-6.68,18.46h-3l-6.73-18.46-2.86-8.09h-.19c.13,1.03.23,2.17.31,3.42.08,1.24.15,2.47.19,3.68.05,1.21.07,2.33.07,3.37v19.67h-4.02Z"/>
      <path class="st2" d="M812.35,179.04v-35.5h4.46v35.5h-4.46Z"/>
      <path class="st2" d="M833.9,179.04v-31.73h-10.75v-3.78h26.01v3.78h-10.75v31.73h-4.5Z"/>
      <path class="st2" d="M855.55,179.04v-35.5h20.44v3.78h-15.98v11.14h13.46v3.83h-13.46v12.93h16.52v3.83h-20.97Z"/>
      <path class="st2" d="M884.08,179.04v-35.5h8.86c3.65,0,6.72.69,9.2,2.06,2.49,1.37,4.36,3.37,5.62,5.98,1.26,2.62,1.89,5.81,1.89,9.59s-.63,6.96-1.89,9.64c-1.26,2.68-3.12,4.72-5.57,6.13-2.46,1.41-5.47,2.11-9.06,2.11h-9.06ZM888.54,175.36h4.02c2.78,0,5.09-.56,6.95-1.67,1.86-1.11,3.25-2.74,4.17-4.87.92-2.13,1.38-4.68,1.38-7.65s-.46-5.59-1.38-7.65c-.92-2.07-2.31-3.64-4.17-4.72-1.86-1.08-4.17-1.62-6.95-1.62h-4.02v28.19Z"/>
    </g>
  </g>
</svg>