<?xml version="1.0" encoding="utf-8"?>
<!-- Generator: Adobe Illustrator 22.0.1, SVG Export Plug-In . SVG Version: 6.00 Build 0)  -->
<svg version="1.1" id="圖層_1" xmlns="http://www.w3.org/2000/svg" xmlns:xlink="http://www.w3.org/1999/xlink" x="0px" y="0px"
	 viewBox="0 0 960 200" style="enable-background:new 0 0 960 200;" xml:space="preserve">
<style type="text/css">
	.st0{fill:#FFFFFF;}
</style>
<g>
	<g>
		<g>
			<path class="st0" d="M126.2,154.7c-0.4-3.1-0.9-6.2-1.3-9.3c-21.8,7-45.9,11.3-65.5,6.2C10.9,139,55.6,41.7,176.3,5.8
				c1-0.3,3.4-1,3.1-2c0,0-0.4-1.4-4.5-0.4C158.9,7,115.7,20.7,79.9,46.9C34.7,79.9,5.6,115.1,1,137.9c-5.1,25.4,6.7,71,104.6,27.1
				c7.6-3.4,14.5-6.6,20.8-9.5C126.3,155.3,126.3,155,126.2,154.7z"/>
		</g>
		<g>
			<path class="st0" d="M185.4,118.4c0,0-12.4,7.4-30.4,15.5c-0.3,2.7-0.7,5.5-1,8.2c24.2-12.4,32.4-19.1,33.4-22.5
				C188.2,116.6,185.4,118.4,185.4,118.4z"/>
		</g>
	</g>
	<g>
		<g>
			<path class="st0" d="M124.2,64.6c-21.9,12.3-29.4,18.8-30.3,22.2c-0.8,3,2,1.1,2,1.1s13.3-8.5,32.4-17.6
				C126.4,68.6,125.1,66.7,124.2,64.6z"/>
		</g>
		<g>
			<path class="st0" d="M174.2,38.8c-7.7,3.7-14.7,7.2-21,10.4c2,3,2.7,6.3,2.3,9.7c21.6-7.7,45.5-12.7,65.3-8.2
				c48.9,11.1,7.2,109.7-112.2,149.4c-0.9,0.3-3.4,1.1-3,2.1c0,0,0.4,1.4,4.6,0.3c15.8-4.1,58.6-19.2,93.5-46.5
				c44.1-34.4,72.1-70.5,76-93.5C283.9,37.1,270.6-8.2,174.2,38.8z"/>
		</g>
	</g>
	<g>
		<path class="st0" d="M154.6,94.2c-2,20-3.9,38.6-5.8,57.1c-0.6,5.9-2.4,11.8-9.1,12.2c-7.8,0.5-9.5-6.4-10.1-12.3
			c-2.2-19.3-4.2-38.6-5.7-58c-0.7-8.8,7.4-16.1,15.9-15.7C148.9,77.9,155,85.5,154.6,94.2z"/>
	</g>
	<g>
		<circle class="st0" cx="139.5" cy="58.3" r="11.4"/>
	</g>
</g>
<g>
	<g>
		<g>
			<path class="st0" d="M371,172.5c-2.1,1-4.4,1.8-6.9,2.6c-2.5,0.7-4.9,1.1-7.3,1.1c-3,0-5.8-0.4-8.3-1.3s-4.7-2.1-6.4-3.8
				c-1.8-1.7-3.2-3.8-4.1-6.4c-1-2.6-1.5-5.5-1.5-9c0-6.3,1.8-11.2,5.4-14.9c3.6-3.6,8.6-5.4,14.9-5.4c2.2,0,4.5,0.3,6.8,0.8
				c2.3,0.5,4.8,1.4,7.4,2.7v6.2h-0.5c-0.5-0.4-1.3-1-2.3-1.7c-1-0.7-2-1.3-3-1.7c-1.2-0.5-2.6-1-4.1-1.4c-1.5-0.4-3.2-0.5-5.2-0.5
				c-4.3,0-7.8,1.4-10.3,4.2s-3.8,6.6-3.8,11.5c0,5.1,1.3,9,4,11.8c2.6,2.8,6.2,4.2,10.8,4.2c1.7,0,3.3-0.2,5-0.5s3.1-0.8,4.4-1.3
				v-9.6h-10.4v-4.6H371V172.5z"/>
		</g>
		<g>
			<path class="st0" d="M406.4,175.4h-4.9v-3.3c-1.7,1.3-3.2,2.3-4.7,3c-1.5,0.7-3.2,1.1-5,1.1c-3.1,0-5.4-0.9-7.1-2.8
				c-1.7-1.9-2.6-4.7-2.6-8.3V146h4.9v16.8c0,1.5,0.1,2.8,0.2,3.8s0.4,2,0.9,2.7c0.5,0.8,1.1,1.3,1.8,1.7c0.7,0.4,1.8,0.5,3.3,0.5
				c1.3,0,2.7-0.3,4.2-1c1.5-0.7,2.9-1.5,4.2-2.6v-22h4.9V175.4z"/>
		</g>
		<g>
			<path class="st0" d="M443.1,175.4h-4.9v-16.8c0-1.4-0.1-2.6-0.2-3.8c-0.2-1.2-0.4-2.1-0.9-2.8c-0.4-0.7-1.1-1.3-1.9-1.6
				c-0.8-0.4-1.9-0.5-3.2-0.5c-1.3,0-2.7,0.3-4.2,1c-1.5,0.7-2.9,1.5-4.2,2.6v22h-4.9V146h4.9v3.3c1.5-1.3,3.1-2.3,4.7-3
				c1.6-0.7,3.3-1.1,5-1.1c3.1,0,5.5,1,7.2,2.9c1.7,1.9,2.5,4.7,2.5,8.3V175.4z"/>
		</g>
		<g>
			<path class="st0" d="M478.8,172.1c0,5-1.1,8.7-3.4,11c-2.2,2.3-5.7,3.5-10.4,3.5c-1.5,0-3.1-0.1-4.5-0.3
				c-1.5-0.2-2.9-0.5-4.3-0.9v-5.1h0.3c0.8,0.3,2.1,0.7,3.8,1.2s3.5,0.7,5.2,0.7c1.7,0,3.1-0.2,4.1-0.6c1.1-0.4,1.9-1,2.6-1.7
				c0.6-0.7,1-1.5,1.3-2.5c0.3-1,0.4-2,0.4-3.2v-2.7c-1.5,1.2-2.9,2.1-4.2,2.7s-3.1,0.9-5.1,0.9c-3.5,0-6.2-1.3-8.3-3.8
				c-2-2.5-3.1-6.1-3.1-10.7c0-2.5,0.4-4.7,1.1-6.5c0.7-1.8,1.7-3.4,2.9-4.8c1.1-1.2,2.5-2.2,4.1-2.9s3.2-1,4.8-1
				c1.7,0,3.1,0.2,4.2,0.5c1.1,0.3,2.3,0.9,3.6,1.6l0.3-1.3h4.6V172.1z M473.9,167.3v-16.1c-1.3-0.6-2.5-1-3.6-1.3
				c-1.1-0.3-2.2-0.4-3.4-0.4c-2.7,0-4.8,0.9-6.4,2.7c-1.5,1.8-2.3,4.5-2.3,8c0,3.3,0.6,5.8,1.7,7.5s3.1,2.6,5.7,2.6
				c1.4,0,2.9-0.3,4.3-0.8C471.4,169,472.7,168.3,473.9,167.3z"/>
		</g>
		<g>
			<path class="st0" d="M506.6,160.7h-16.3v-4.8h16.3V160.7z"/>
		</g>
		<g>
			<path class="st0" d="M548.2,175.4H543v-19.2h-19.4v19.2h-5.2v-39.2h5.2v15.4H543v-15.4h5.2V175.4z"/>
		</g>
		<g>
			<path class="st0" d="M585.7,160.7c0,4.8-1.2,8.6-3.7,11.4c-2.4,2.8-5.7,4.2-9.8,4.2c-4.1,0-7.4-1.4-9.8-4.2
				c-2.4-2.8-3.6-6.6-3.6-11.4c0-4.8,1.2-8.6,3.6-11.4c2.4-2.8,5.7-4.2,9.8-4.2c4.1,0,7.3,1.4,9.8,4.2
				C584.5,152.1,585.7,155.9,585.7,160.7z M580.6,160.7c0-3.8-0.7-6.6-2.2-8.5s-3.5-2.8-6.2-2.8c-2.7,0-4.7,0.9-6.2,2.8
				c-1.5,1.9-2.2,4.7-2.2,8.5c0,3.7,0.7,6.5,2.2,8.4c1.5,1.9,3.5,2.9,6.2,2.9c2.6,0,4.7-0.9,6.1-2.8S580.6,164.5,580.6,160.7z"/>
		</g>
		<g>
			<path class="st0" d="M647.8,172.6c-1,0.4-1.8,0.8-2.6,1.2c-0.8,0.4-1.8,0.8-3,1.2c-1.1,0.3-2.2,0.6-3.5,0.9s-2.6,0.4-4.1,0.4
				c-2.8,0-5.4-0.4-7.7-1.2c-2.3-0.8-4.3-2.1-6-3.8c-1.7-1.7-3-3.8-3.9-6.4c-0.9-2.6-1.4-5.6-1.4-9c0-3.2,0.5-6.1,1.4-8.7
				s2.2-4.7,3.9-6.5c1.7-1.7,3.6-3,6-3.9c2.3-0.9,4.9-1.3,7.8-1.3c2.1,0,4.2,0.3,6.2,0.8s4.4,1.4,6.9,2.7v6.2h-0.4
				c-2.1-1.8-4.3-3.1-6.4-4c-2.1-0.8-4.4-1.2-6.8-1.2c-2,0-3.7,0.3-5.3,1s-3,1.6-4.2,3c-1.2,1.3-2.1,3-2.8,5c-0.7,2-1,4.3-1,7
				c0,2.8,0.4,5.1,1.1,7.1c0.7,2,1.7,3.6,2.9,4.9c1.2,1.3,2.6,2.3,4.3,2.9c1.6,0.6,3.3,0.9,5.2,0.9c2.5,0,4.8-0.4,7-1.3
				c2.2-0.9,4.2-2.2,6.1-3.9h0.4V172.6z"/>
		</g>
		<g>
			<path class="st0" d="M682.2,160.7c0,4.8-1.2,8.6-3.7,11.4s-5.7,4.2-9.8,4.2c-4.1,0-7.4-1.4-9.8-4.2s-3.6-6.6-3.6-11.4
				c0-4.8,1.2-8.6,3.6-11.4s5.7-4.2,9.8-4.2c4.1,0,7.3,1.4,9.8,4.2S682.2,155.9,682.2,160.7z M677.1,160.7c0-3.8-0.7-6.6-2.2-8.5
				s-3.5-2.8-6.2-2.8c-2.7,0-4.7,0.9-6.2,2.8c-1.5,1.9-2.2,4.7-2.2,8.5c0,3.7,0.7,6.5,2.2,8.4s3.5,2.9,6.2,2.9
				c2.6,0,4.7-0.9,6.1-2.8S677.1,164.5,677.1,160.7z"/>
		</g>
		<g>
			<path class="st0" d="M716.8,175.4h-4.9v-16.8c0-1.4-0.1-2.6-0.2-3.8c-0.2-1.2-0.4-2.1-0.9-2.8c-0.4-0.7-1.1-1.3-1.9-1.6
				c-0.8-0.4-1.9-0.5-3.2-0.5c-1.3,0-2.7,0.3-4.2,1c-1.5,0.7-2.9,1.5-4.2,2.6v22h-4.9V146h4.9v3.3c1.5-1.3,3.1-2.3,4.7-3
				c1.6-0.7,3.3-1.1,5-1.1c3.1,0,5.5,1,7.2,2.9s2.5,4.7,2.5,8.3V175.4z"/>
		</g>
		<g>
			<path class="st0" d="M749.7,167c0,2.7-1.1,4.9-3.3,6.6c-2.2,1.7-5.2,2.6-9,2.6c-2.2,0-4.1-0.3-5.9-0.8c-1.8-0.5-3.3-1.1-4.5-1.7
				v-5.6h0.3c1.5,1.2,3.3,2.1,5.2,2.8s3.7,1,5.4,1c2.2,0,3.8-0.4,5.1-1.1c1.2-0.7,1.8-1.8,1.8-3.3c0-1.2-0.3-2-1-2.6
				c-0.7-0.6-1.9-1.1-3.8-1.5c-0.7-0.2-1.6-0.3-2.7-0.6c-1.1-0.2-2.1-0.4-3.1-0.7c-2.6-0.7-4.4-1.7-5.4-3c-1.1-1.3-1.6-3-1.6-4.9
				c0-1.2,0.2-2.4,0.7-3.4c0.5-1.1,1.2-2,2.3-2.9c1-0.8,2.2-1.5,3.7-2s3.2-0.7,5-0.7c1.7,0,3.5,0.2,5.3,0.6c1.8,0.4,3.3,1,4.4,1.6
				v5.3h-0.3c-1.3-0.9-2.8-1.7-4.6-2.4c-1.8-0.6-3.5-1-5.3-1c-1.8,0-3.3,0.3-4.5,1c-1.2,0.7-1.9,1.7-1.9,3.1c0,1.2,0.4,2.1,1.1,2.7
				c0.7,0.6,1.9,1.1,3.5,1.5c0.9,0.2,1.9,0.4,3,0.6c1.1,0.2,2.1,0.4,2.8,0.6c2.3,0.5,4,1.4,5.3,2.7
				C749.1,163.1,749.7,164.8,749.7,167z"/>
		</g>
		<g>
			<path class="st0" d="M783.5,175.4h-4.9v-3.3c-1.7,1.3-3.2,2.3-4.7,3c-1.5,0.7-3.2,1.1-5,1.1c-3.1,0-5.4-0.9-7.1-2.8
				c-1.7-1.9-2.6-4.7-2.6-8.3V146h4.9v16.8c0,1.5,0.1,2.8,0.2,3.8c0.1,1.1,0.4,2,0.9,2.7c0.5,0.8,1.1,1.3,1.8,1.7
				c0.7,0.4,1.8,0.5,3.3,0.5c1.3,0,2.7-0.3,4.2-1c1.5-0.7,2.9-1.5,4.2-2.6v-22h4.9V175.4z"/>
		</g>
		<g>
			<path class="st0" d="M800.8,175.4h-4.9v-41h4.9V175.4z"/>
		</g>
		<g>
			<path class="st0" d="M828.3,175.2c-0.9,0.2-1.9,0.4-3,0.6c-1.1,0.2-2.1,0.2-2.9,0.2c-3,0-5.2-0.8-6.8-2.4
				c-1.5-1.6-2.3-4.2-2.3-7.8v-15.7H810V146h3.3v-8.5h4.9v8.5h10.1v4.2h-10.1v13.4c0,1.5,0,2.8,0.1,3.6c0.1,0.9,0.3,1.7,0.7,2.4
				c0.4,0.7,0.9,1.2,1.6,1.5s1.7,0.5,3.1,0.5c0.8,0,1.6-0.1,2.5-0.4c0.9-0.2,1.5-0.4,1.9-0.6h0.3V175.2z"/>
		</g>
		<g>
			<path class="st0" d="M859.5,175.4h-4.9v-3.1c-0.4,0.3-1,0.7-1.8,1.3c-0.7,0.5-1.5,1-2.2,1.3c-0.8,0.4-1.8,0.7-2.8,1
				s-2.3,0.4-3.7,0.4c-2.6,0-4.8-0.9-6.7-2.6c-1.8-1.8-2.7-4-2.7-6.7c0-2.2,0.5-4,1.4-5.4c0.9-1.4,2.3-2.5,4.1-3.3
				c1.8-0.8,3.9-1.3,6.4-1.6c2.5-0.3,5.2-0.5,8-0.6v-0.8c0-1.1-0.2-2.1-0.6-2.8c-0.4-0.7-1-1.3-1.7-1.7c-0.7-0.4-1.5-0.7-2.5-0.8
				s-2-0.2-3.1-0.2c-1.3,0-2.7,0.2-4.3,0.5c-1.6,0.3-3.2,0.8-4.9,1.5h-0.3v-5c1-0.3,2.3-0.6,4.1-0.9c1.8-0.3,3.6-0.5,5.3-0.5
				c2.1,0,3.8,0.2,5.4,0.5c1.5,0.3,2.8,0.9,4,1.8c1.1,0.8,1.9,1.9,2.5,3.1s0.9,2.9,0.9,4.8V175.4z M854.6,168.2V160
				c-1.5,0.1-3.3,0.2-5.3,0.4c-2,0.2-3.6,0.4-4.8,0.8c-1.4,0.4-2.5,1-3.4,1.9s-1.3,2-1.3,3.5c0,1.7,0.5,3,1.5,3.8
				c1,0.9,2.5,1.3,4.6,1.3c1.7,0,3.3-0.3,4.7-1C852.1,170,853.4,169.1,854.6,168.2z"/>
		</g>
		<g>
			<path class="st0" d="M896,175.4h-4.9v-16.8c0-1.4-0.1-2.6-0.2-3.8c-0.2-1.2-0.4-2.1-0.9-2.8c-0.4-0.7-1.1-1.3-1.9-1.6
				c-0.8-0.4-1.9-0.5-3.2-0.5c-1.3,0-2.7,0.3-4.2,1c-1.5,0.7-2.9,1.5-4.2,2.6v22h-4.9V146h4.9v3.3c1.5-1.3,3.1-2.3,4.7-3
				c1.6-0.7,3.3-1.1,5-1.1c3.1,0,5.5,1,7.2,2.9s2.5,4.7,2.5,8.3V175.4z"/>
		</g>
		<g>
			<path class="st0" d="M923.2,175.2c-0.9,0.2-1.9,0.4-3,0.6c-1.1,0.2-2.1,0.2-2.9,0.2c-3,0-5.2-0.8-6.8-2.4
				c-1.5-1.6-2.3-4.2-2.3-7.8v-15.7h-3.3V146h3.3v-8.5h4.9v8.5h10.1v4.2h-10.1v13.4c0,1.5,0,2.8,0.1,3.6c0.1,0.9,0.3,1.7,0.7,2.4
				c0.4,0.7,0.9,1.2,1.6,1.5s1.7,0.5,3.1,0.5c0.8,0,1.6-0.1,2.5-0.4c0.9-0.2,1.5-0.4,1.9-0.6h0.3V175.2z"/>
		</g>
	</g>
	<g>
		<g>
			<g>
				<path class="st0" d="M369.8,83.2c-7.1,8-15.9,15-26.3,21l-5.7-7.4c10.2-5.5,18.8-11.9,25.8-19.2L369.8,83.2z M357.3,41.5v-17
					h8.2v17h22.4V24.8h8.2v16.7h15v7.9h-15V68h19.3v8H338v-8h19.3V49.4h-15v-7.9H357.3z M387.8,68V49.4h-22.4V68H387.8z M415.5,97.5
					l-6.5,6.5c-5.8-6.4-14-13.2-24.5-20.5l5.9-5.8C400.3,84.5,408.6,91,415.5,97.5z"/>
			</g>
			<g>
				<path class="st0" d="M462.2,24.6c-0.9,5.7-1.9,10.9-2.8,15.8h14.4v4.5c-0.6,13.4-3.3,25.1-7.9,35.1c4.8,3.7,8.7,7,11.6,10
					l-5.6,6.4c-2.8-2.8-6.1-5.9-9.9-9.2c-4.2,6.7-9.5,12.6-15.7,17.4l-5.6-6.9c6.1-4.4,11.1-9.6,15-15.7c-4-3.2-8.3-6.4-12.9-9.9
					c2.6-7.4,4.8-15.3,6.9-23.8h-8.3v-7.8h10c1-5.3,2.1-10.8,2.9-16.5L462.2,24.6z M465.7,48.3h-8c-2,8.4-4,15.6-6.1,21.3
					c2.8,1.9,5.3,3.8,7.7,5.5C462.9,67.2,465,58.2,465.7,48.3z M494.4,60.1v-9.9c4.3-3.9,8.5-8.5,12.5-13.8h-28.7v-7.9h38.1v7.9
					c-4,5.8-8.6,11.2-13.7,16.3v7.4h16.8V68h-16.8v25.5c0,6.4-2.5,9.5-7.3,9.5h-12.7l-2.1-7.7c3.5,0,7.4,0.1,11.5,0.1
					c1.6,0,2.5-1.5,2.5-4.4V68h-18.7v-7.9H494.4z"/>
			</g>
			<g>
				<path class="st0" d="M551.4,46.1l-7.1-4.5c5-5.3,8.5-11.2,10.7-17.4l7.8,1.7c-0.5,1.5-1.1,2.9-1.6,4.3h21.7v7.1h-12.9
					c1.5,2.1,2.9,4.2,4,6.2l-7.5,2.8c-1.5-3.1-3.1-6.1-5-9h-3.8C555.7,40.5,553.7,43.5,551.4,46.1z M620,64.2h-8v-9.5h-58v9.5h-8
					V47.8h33.3c-0.7-1.7-1.5-3.3-2.2-4.6l7.2-1.2l-1.5-0.9c4-5.2,6.9-10.7,8.6-16.6l7.8,1.7c-0.5,1.5-0.9,2.8-1.5,4.2h23.9v7.1h-14
					c1.4,1.9,2.5,3.8,3.4,5.5l-7.2,2.7c-1.4-2.8-3-5.5-4.9-8.2h-4.4c-1.5,2.8-3.1,5.5-4.9,7.9l-4.1-2.7c0.7,1.5,1.3,3.3,2,5.1H620
					V64.2z M608.1,76.6h-41.9v4.6h45.9v23H604V101h-37.7v3h-8.2V58.5h50V76.6z M600.1,70v-5h-33.9v5H600.1z M604,93.8v-6.2h-37.7
					v6.2H604z"/>
			</g>
			<g>
				<path class="st0" d="M657,55.9V37.5h-9.8v-7.7H675v7.7h-9.7v18.4h8.7v7.8h-8.7v17.2c2.9-1,5.8-2.1,8.5-3.3v7.9
					c-7.9,3.1-16.3,5.8-25.4,7.9l-2-7.8c3.6-0.6,7.1-1.4,10.6-2.2V63.7h-8.5v-7.8H657z M721.7,27.6v41.1h-17.6v8.6h18.7v7.6h-18.7
					v8.9h21.8v7.8h-52v-7.8H696v-8.9h-18.8v-7.6H696v-8.6h-17.8V27.6H721.7z M696,44.7v-9.8h-10v9.8H696z M696,51.7h-10v9.8h10V51.7
					z M704.1,44.7h9.8v-9.8h-9.8V44.7z M713.9,51.7h-9.8v9.8h9.8V51.7z"/>
			</g>
			<g>
				<path class="st0" d="M762.1,83l-2.1-2.5c-1.1,9.1-2.8,16.9-5.2,23.2l-5.2-5.4c2.9-9.4,4.5-22.4,4.6-38.9V29.2
					c12.1-0.2,23-1.4,32.4-3.5l3.5,6.4c-8.6,1.7-18.2,2.7-28.9,3v3.8H790v16.7h-28.5v3.9c-0.1,5.2-0.3,9.9-0.7,14.4
					c2.7-4.6,5.1-10.1,7.1-16.8l6.4,1.4c-0.6,1.8-1.2,3.5-1.8,5.2h5.6c-0.7-2-1.4-3.8-2.1-5.5l6.4-1c0.7,2,1.5,4.1,2.1,6.5h7.4v6.2
					h-7.4v4.4h6v6h-6v4.6h6.2v6h-6.2V95h7.9v3c4.5-2.9,8.3-6.2,11.3-10l5.1,4.5c-3.3,4.3-7.4,8.1-12.2,11.3l-4.2-5.3v2.8h-21.1v2.7
					H765V78.8C764,80.3,763.1,81.7,762.1,83z M782.6,49.6v-4.6h-21.2v4.6H782.6z M778.4,69.7h-7v4.4h7V69.7z M778.4,80.1h-7v4.6h7
					V80.1z M778.4,95v-4.3h-7V95H778.4z M804.8,41.8c0.7-2.3,1.2-4.6,1.5-7h-13.5v-7h35.6v7h-14.2c-0.4,2.4-0.9,4.8-1.5,7h13.5V88
					h-8.1c4.6,3.5,8.4,7,11.7,10.7l-5.2,5.1c-2.9-3.6-6.9-7.4-11.9-11.4l4.6-4.3h-22.2V41.8H804.8z M818.6,55.2v-6.5h-15.9v6.5
					H818.6z M818.6,68.4v-6.5h-15.9v6.5H818.6z M818.6,75h-15.9v6.1h15.9V75z"/>
			</g>
			<g>
				<path class="st0" d="M889.2,61.8h-23.8v42.1h-8.1V27.4h31.9V61.8z M881.1,34.6h-15.7v6.6h15.7V34.6z M865.4,54.6h15.7v-6.4
					h-15.7V54.6z M909.6,67v27h-34.2V67H909.6z M901.7,74.2h-18.4v12.6h18.4V74.2z M895.3,61.7V27.4h32.4v68c0,5.5-2.8,8.3-8.3,8.3
					c-2.8,0-5.7-0.1-8.4-0.3l-2.1-7.8c2.7,0.3,5.2,0.4,7.5,0.4c2.2,0,3.4-1.1,3.4-3.3v-31H895.3z M919.7,34.8h-16.3v6.4h16.3V34.8z
					 M903.5,54.5h16.3v-6.4h-16.3V54.5z"/>
			</g>
		</g>
	</g>
</g>
</svg>
