<?xml version="1.0" encoding="utf-8"?>
<!-- Generator: Adobe Illustrator 22.1.0, SVG Export Plug-In . SVG Version: 6.00 Build 0)  -->
<svg version="1.1" id="圖層_1" xmlns="http://www.w3.org/2000/svg" xmlns:xlink="http://www.w3.org/1999/xlink" x="0px" y="0px"
	 viewBox="0 0 960 200" style="enable-background:new 0 0 960 200;" xml:space="preserve">
<style type="text/css">
	.st0{fill:#FFFFFF;}
	.st1{fill:#DB752A;}
</style>
<g>
	<g>
		<path class="st0" d="M126.2,151.7c-0.4-3.1-0.9-6.2-1.3-9.3c-21.8,7-45.9,11.3-65.5,6.2C10.9,136,55.6,38.7,176.3,2.8
			c1-0.3,3.4-1,3.1-2c0,0-0.4-1.4-4.5-0.4c-16,3.6-59.2,17.3-95,43.5c-45.2,33-74.3,68.2-78.9,91c-5.1,25.4,6.7,71,104.6,27.1
			c7.6-3.4,14.5-6.6,20.8-9.5C126.3,152.3,126.3,152,126.2,151.7z"/>
	</g>
	<g>
		<path class="st0" d="M185.4,115.4c0,0-12.4,7.4-30.4,15.5c-0.3,2.7-0.7,5.5-1,8.2c24.2-12.4,32.4-19.1,33.4-22.5
			C188.2,113.6,185.4,115.4,185.4,115.4z"/>
	</g>
</g>
<g>
	<g>
		<path class="st0" d="M124.2,61.6c-21.9,12.3-29.4,18.8-30.3,22.2c-0.8,3,2,1.1,2,1.1s13.3-8.5,32.4-17.6
			C126.4,65.6,125.1,63.7,124.2,61.6z"/>
	</g>
	<g>
		<path class="st0" d="M174.2,35.8c-7.7,3.7-14.7,7.2-21,10.4c2,3,2.7,6.3,2.3,9.7c21.6-7.7,45.5-12.7,65.3-8.2
			c48.9,11.1,7.2,109.7-112.2,149.4c-0.9,0.3-3.4,1.1-3,2.1c0,0,0.4,1.4,4.6,0.3c15.8-4.1,58.6-19.2,93.5-46.5
			c44.1-34.4,72.1-70.5,76-93.5C283.9,34.1,270.6-11.2,174.2,35.8z"/>
	</g>
</g>
<g>
	<path class="st1" d="M154.6,91.2c-2,20-3.9,38.6-5.8,57.1c-0.6,5.9-2.4,11.8-9.1,12.2c-7.8,0.5-9.5-6.4-10.1-12.3
		c-2.2-19.3-4.2-38.6-5.7-58c-0.7-8.8,7.4-16.1,15.9-15.7C148.9,74.9,155,82.5,154.6,91.2z"/>
</g>
<g>
	<circle class="st1" cx="139.5" cy="55.3" r="11.4"/>
</g>
<g>
	<g>
		<g>
			<path class="st0" d="M371,169.5c-2.1,1-4.4,1.8-6.9,2.6c-2.5,0.7-4.9,1.1-7.3,1.1c-3,0-5.8-0.4-8.3-1.3s-4.7-2.1-6.4-3.8
				c-1.8-1.7-3.2-3.8-4.1-6.4c-1-2.6-1.5-5.5-1.5-9c0-6.3,1.8-11.2,5.4-14.9c3.6-3.6,8.6-5.4,14.9-5.4c2.2,0,4.5,0.3,6.8,0.8
				s4.8,1.4,7.4,2.7v6.2h-0.5c-0.5-0.4-1.3-1-2.3-1.7s-2-1.3-3-1.7c-1.2-0.5-2.6-1-4.1-1.4s-3.2-0.5-5.2-0.5
				c-4.3,0-7.8,1.4-10.3,4.2s-3.8,6.6-3.8,11.5c0,5.1,1.3,9,4,11.8c2.6,2.8,6.2,4.2,10.8,4.2c1.7,0,3.3-0.2,5-0.5s3.1-0.8,4.4-1.3
				v-9.6h-10.4v-4.6H371V169.5z"/>
		</g>
		<g>
			<path class="st0" d="M406.4,172.4h-4.9v-3.3c-1.7,1.3-3.2,2.3-4.7,3s-3.2,1.1-5,1.1c-3.1,0-5.4-0.9-7.1-2.8
				c-1.7-1.9-2.6-4.7-2.6-8.3V143h4.9v16.8c0,1.5,0.1,2.8,0.2,3.8s0.4,2,0.9,2.7c0.5,0.8,1.1,1.3,1.8,1.7c0.7,0.4,1.8,0.5,3.3,0.5
				c1.3,0,2.7-0.3,4.2-1s2.9-1.5,4.2-2.6v-22h4.9L406.4,172.4L406.4,172.4z"/>
		</g>
		<g>
			<path class="st0" d="M443.1,172.4h-4.9v-16.8c0-1.4-0.1-2.6-0.2-3.8c-0.2-1.2-0.4-2.1-0.9-2.8c-0.4-0.7-1.1-1.3-1.9-1.6
				c-0.8-0.4-1.9-0.5-3.2-0.5c-1.3,0-2.7,0.3-4.2,1s-2.9,1.5-4.2,2.6v22h-4.9V143h4.9v3.3c1.5-1.3,3.1-2.3,4.7-3s3.3-1.1,5-1.1
				c3.1,0,5.5,1,7.2,2.9s2.5,4.7,2.5,8.3v19H443.1z"/>
		</g>
		<g>
			<path class="st0" d="M478.8,169.1c0,5-1.1,8.7-3.4,11c-2.2,2.3-5.7,3.5-10.4,3.5c-1.5,0-3.1-0.1-4.5-0.3
				c-1.5-0.2-2.9-0.5-4.3-0.9v-5.1h0.3c0.8,0.3,2.1,0.7,3.8,1.2s3.5,0.7,5.2,0.7s3.1-0.2,4.1-0.6c1.1-0.4,1.9-1,2.6-1.7
				c0.6-0.7,1-1.5,1.3-2.5s0.4-2,0.4-3.2v-2.7c-1.5,1.2-2.9,2.1-4.2,2.7s-3.1,0.9-5.1,0.9c-3.5,0-6.2-1.3-8.3-3.8
				c-2-2.5-3.1-6.1-3.1-10.7c0-2.5,0.4-4.7,1.1-6.5s1.7-3.4,2.9-4.8c1.1-1.2,2.5-2.2,4.1-2.9s3.2-1,4.8-1c1.7,0,3.1,0.2,4.2,0.5
				s2.3,0.9,3.6,1.6l0.3-1.3h4.6V169.1z M473.9,164.3v-16.1c-1.3-0.6-2.5-1-3.6-1.3s-2.2-0.4-3.4-0.4c-2.7,0-4.8,0.9-6.4,2.7
				c-1.5,1.8-2.3,4.5-2.3,8c0,3.3,0.6,5.8,1.7,7.5s3.1,2.6,5.7,2.6c1.4,0,2.9-0.3,4.3-0.8C471.4,166,472.7,165.3,473.9,164.3z"/>
		</g>
		<g>
			<path class="st0" d="M506.6,157.7h-16.3v-4.8h16.3V157.7z"/>
		</g>
		<g>
			<path class="st0" d="M548.2,172.4H543v-19.2h-19.4v19.2h-5.2v-39.2h5.2v15.4H543v-15.4h5.2V172.4z"/>
		</g>
		<g>
			<path class="st0" d="M585.7,157.7c0,4.8-1.2,8.6-3.7,11.4c-2.4,2.8-5.7,4.2-9.8,4.2s-7.4-1.4-9.8-4.2c-2.4-2.8-3.6-6.6-3.6-11.4
				c0-4.8,1.2-8.6,3.6-11.4c2.4-2.8,5.7-4.2,9.8-4.2s7.3,1.4,9.8,4.2S585.7,152.9,585.7,157.7z M580.6,157.7c0-3.8-0.7-6.6-2.2-8.5
				s-3.5-2.8-6.2-2.8s-4.7,0.9-6.2,2.8c-1.5,1.9-2.2,4.7-2.2,8.5c0,3.7,0.7,6.5,2.2,8.4s3.5,2.9,6.2,2.9c2.6,0,4.7-0.9,6.1-2.8
				S580.6,161.5,580.6,157.7z"/>
		</g>
		<g>
			<path class="st0" d="M647.8,169.6c-1,0.4-1.8,0.8-2.6,1.2s-1.8,0.8-3,1.2c-1.1,0.3-2.2,0.6-3.5,0.9s-2.6,0.4-4.1,0.4
				c-2.8,0-5.4-0.4-7.7-1.2s-4.3-2.1-6-3.8s-3-3.8-3.9-6.4c-0.9-2.6-1.4-5.6-1.4-9c0-3.2,0.5-6.1,1.4-8.7s2.2-4.7,3.9-6.5
				c1.7-1.7,3.6-3,6-3.9c2.3-0.9,4.9-1.3,7.8-1.3c2.1,0,4.2,0.3,6.2,0.8s4.4,1.4,6.9,2.7v6.2h-0.4c-2.1-1.8-4.3-3.1-6.4-4
				c-2.1-0.8-4.4-1.2-6.8-1.2c-2,0-3.7,0.3-5.3,1s-3,1.6-4.2,3c-1.2,1.3-2.1,3-2.8,5s-1,4.3-1,7c0,2.8,0.4,5.1,1.1,7.1
				c0.7,2,1.7,3.6,2.9,4.9c1.2,1.3,2.6,2.3,4.3,2.9c1.6,0.6,3.3,0.9,5.2,0.9c2.5,0,4.8-0.4,7-1.3c2.2-0.9,4.2-2.2,6.1-3.9h0.4v6
				H647.8z"/>
		</g>
		<g>
			<path class="st0" d="M682.2,157.7c0,4.8-1.2,8.6-3.7,11.4s-5.7,4.2-9.8,4.2s-7.4-1.4-9.8-4.2s-3.6-6.6-3.6-11.4
				c0-4.8,1.2-8.6,3.6-11.4s5.7-4.2,9.8-4.2s7.3,1.4,9.8,4.2S682.2,152.9,682.2,157.7z M677.1,157.7c0-3.8-0.7-6.6-2.2-8.5
				s-3.5-2.8-6.2-2.8s-4.7,0.9-6.2,2.8c-1.5,1.9-2.2,4.7-2.2,8.5c0,3.7,0.7,6.5,2.2,8.4s3.5,2.9,6.2,2.9c2.6,0,4.7-0.9,6.1-2.8
				S677.1,161.5,677.1,157.7z"/>
		</g>
		<g>
			<path class="st0" d="M716.8,172.4h-4.9v-16.8c0-1.4-0.1-2.6-0.2-3.8c-0.2-1.2-0.4-2.1-0.9-2.8c-0.4-0.7-1.1-1.3-1.9-1.6
				c-0.8-0.4-1.9-0.5-3.2-0.5s-2.7,0.3-4.2,1s-2.9,1.5-4.2,2.6v22h-4.9V143h4.9v3.3c1.5-1.3,3.1-2.3,4.7-3c1.6-0.7,3.3-1.1,5-1.1
				c3.1,0,5.5,1,7.2,2.9s2.5,4.7,2.5,8.3v19H716.8z"/>
		</g>
		<g>
			<path class="st0" d="M749.7,164c0,2.7-1.1,4.9-3.3,6.6c-2.2,1.7-5.2,2.6-9,2.6c-2.2,0-4.1-0.3-5.9-0.8c-1.8-0.5-3.3-1.1-4.5-1.7
				v-5.6h0.3c1.5,1.2,3.3,2.1,5.2,2.8s3.7,1,5.4,1c2.2,0,3.8-0.4,5.1-1.1c1.2-0.7,1.8-1.8,1.8-3.3c0-1.2-0.3-2-1-2.6
				s-1.9-1.1-3.8-1.5c-0.7-0.2-1.6-0.3-2.7-0.6c-1.1-0.2-2.1-0.4-3.1-0.7c-2.6-0.7-4.4-1.7-5.4-3c-1.1-1.3-1.6-3-1.6-4.9
				c0-1.2,0.2-2.4,0.7-3.4c0.5-1.1,1.2-2,2.3-2.9c1-0.8,2.2-1.5,3.7-2s3.2-0.7,5-0.7c1.7,0,3.5,0.2,5.3,0.6c1.8,0.4,3.3,1,4.4,1.6
				v5.3h-0.3c-1.3-0.9-2.8-1.7-4.6-2.4c-1.8-0.6-3.5-1-5.3-1s-3.3,0.3-4.5,1s-1.9,1.7-1.9,3.1c0,1.2,0.4,2.1,1.1,2.7
				c0.7,0.6,1.9,1.1,3.5,1.5c0.9,0.2,1.9,0.4,3,0.6c1.1,0.2,2.1,0.4,2.8,0.6c2.3,0.5,4,1.4,5.3,2.7
				C749.1,160.1,749.7,161.8,749.7,164z"/>
		</g>
		<g>
			<path class="st0" d="M783.5,172.4h-4.9v-3.3c-1.7,1.3-3.2,2.3-4.7,3s-3.2,1.1-5,1.1c-3.1,0-5.4-0.9-7.1-2.8
				c-1.7-1.9-2.6-4.7-2.6-8.3V143h4.9v16.8c0,1.5,0.1,2.8,0.2,3.8c0.1,1.1,0.4,2,0.9,2.7c0.5,0.8,1.1,1.3,1.8,1.7s1.8,0.5,3.3,0.5
				c1.3,0,2.7-0.3,4.2-1s2.9-1.5,4.2-2.6v-22h4.9v29.5H783.5z"/>
		</g>
		<g>
			<path class="st0" d="M800.8,172.4h-4.9v-41h4.9V172.4z"/>
		</g>
		<g>
			<path class="st0" d="M828.3,172.2c-0.9,0.2-1.9,0.4-3,0.6c-1.1,0.2-2.1,0.2-2.9,0.2c-3,0-5.2-0.8-6.8-2.4
				c-1.5-1.6-2.3-4.2-2.3-7.8v-15.7H810V143h3.3v-8.5h4.9v8.5h10.1v4.2h-10.1v13.4c0,1.5,0,2.8,0.1,3.6c0.1,0.9,0.3,1.7,0.7,2.4
				s0.9,1.2,1.6,1.5s1.7,0.5,3.1,0.5c0.8,0,1.6-0.1,2.5-0.4c0.9-0.2,1.5-0.4,1.9-0.6h0.3L828.3,172.2L828.3,172.2z"/>
		</g>
		<g>
			<path class="st0" d="M859.5,172.4h-4.9v-3.1c-0.4,0.3-1,0.7-1.8,1.3c-0.7,0.5-1.5,1-2.2,1.3c-0.8,0.4-1.8,0.7-2.8,1
				s-2.3,0.4-3.7,0.4c-2.6,0-4.8-0.9-6.7-2.6c-1.8-1.8-2.7-4-2.7-6.7c0-2.2,0.5-4,1.4-5.4s2.3-2.5,4.1-3.3s3.9-1.3,6.4-1.6
				s5.2-0.5,8-0.6v-0.8c0-1.1-0.2-2.1-0.6-2.8c-0.4-0.7-1-1.3-1.7-1.7s-1.5-0.7-2.5-0.8s-2-0.2-3.1-0.2c-1.3,0-2.7,0.2-4.3,0.5
				s-3.2,0.8-4.9,1.5h-0.3v-5c1-0.3,2.3-0.6,4.1-0.9c1.8-0.3,3.6-0.5,5.3-0.5c2.1,0,3.8,0.2,5.4,0.5c1.5,0.3,2.8,0.9,4,1.8
				c1.1,0.8,1.9,1.9,2.5,3.1s0.9,2.9,0.9,4.8L859.5,172.4L859.5,172.4z M854.6,165.2V157c-1.5,0.1-3.3,0.2-5.3,0.4s-3.6,0.4-4.8,0.8
				c-1.4,0.4-2.5,1-3.4,1.9s-1.3,2-1.3,3.5c0,1.7,0.5,3,1.5,3.8c1,0.9,2.5,1.3,4.6,1.3c1.7,0,3.3-0.3,4.7-1
				C852.1,167,853.4,166.1,854.6,165.2z"/>
		</g>
		<g>
			<path class="st0" d="M896,172.4h-4.9v-16.8c0-1.4-0.1-2.6-0.2-3.8c-0.2-1.2-0.4-2.1-0.9-2.8c-0.4-0.7-1.1-1.3-1.9-1.6
				c-0.8-0.4-1.9-0.5-3.2-0.5s-2.7,0.3-4.2,1s-2.9,1.5-4.2,2.6v22h-4.9V143h4.9v3.3c1.5-1.3,3.1-2.3,4.7-3c1.6-0.7,3.3-1.1,5-1.1
				c3.1,0,5.5,1,7.2,2.9s2.5,4.7,2.5,8.3v19H896z"/>
		</g>
		<g>
			<path class="st0" d="M923.2,172.2c-0.9,0.2-1.9,0.4-3,0.6c-1.1,0.2-2.1,0.2-2.9,0.2c-3,0-5.2-0.8-6.8-2.4
				c-1.5-1.6-2.3-4.2-2.3-7.8v-15.7h-3.3V143h3.3v-8.5h4.9v8.5h10.1v4.2h-10.1v13.4c0,1.5,0,2.8,0.1,3.6c0.1,0.9,0.3,1.7,0.7,2.4
				s0.9,1.2,1.6,1.5s1.7,0.5,3.1,0.5c0.8,0,1.6-0.1,2.5-0.4c0.9-0.2,1.5-0.4,1.9-0.6h0.3L923.2,172.2L923.2,172.2z"/>
		</g>
	</g>
	<g>
		<g>
			<g>
				<path class="st0" d="M369.8,80.2c-7.1,8-15.9,15-26.3,21l-5.7-7.4c10.2-5.5,18.8-11.9,25.8-19.2L369.8,80.2z M357.3,38.5v-17
					h8.2v17h22.4V21.8h8.2v16.7h15v7.9h-15V65h19.3v8H338v-8h19.3V46.4h-15v-7.9H357.3z M387.8,65V46.4h-22.4V65H387.8z M415.5,94.5
					L409,101c-5.8-6.4-14-13.2-24.5-20.5l5.9-5.8C400.3,81.5,408.6,88,415.5,94.5z"/>
			</g>
			<g>
				<path class="st0" d="M462.2,21.6c-0.9,5.7-1.9,10.9-2.8,15.8h14.4v4.5c-0.6,13.4-3.3,25.1-7.9,35.1c4.8,3.7,8.7,7,11.6,10
					l-5.6,6.4c-2.8-2.8-6.1-5.9-9.9-9.2c-4.2,6.7-9.5,12.6-15.7,17.4l-5.6-6.9c6.1-4.4,11.1-9.6,15-15.7c-4-3.2-8.3-6.4-12.9-9.9
					c2.6-7.4,4.8-15.3,6.9-23.8h-8.3v-7.8h10c1-5.3,2.1-10.8,2.9-16.5L462.2,21.6z M465.7,45.3h-8c-2,8.4-4,15.6-6.1,21.3
					c2.8,1.9,5.3,3.8,7.7,5.5C462.9,64.2,465,55.2,465.7,45.3z M494.4,57.1v-9.9c4.3-3.9,8.5-8.5,12.5-13.8h-28.7v-7.9h38.1v7.9
					c-4,5.8-8.6,11.2-13.7,16.3v7.4h16.8V65h-16.8v25.5c0,6.4-2.5,9.5-7.3,9.5h-12.7l-2.1-7.7c3.5,0,7.4,0.1,11.5,0.1
					c1.6,0,2.5-1.5,2.5-4.4V65h-18.7v-7.9H494.4z"/>
			</g>
			<g>
				<path class="st0" d="M551.4,43.1l-7.1-4.5c5-5.3,8.5-11.2,10.7-17.4l7.8,1.7c-0.5,1.5-1.1,2.9-1.6,4.3h21.7v7.1H570
					c1.5,2.1,2.9,4.2,4,6.2l-7.5,2.8c-1.5-3.1-3.1-6.1-5-9h-3.8C555.7,37.5,553.7,40.5,551.4,43.1z M620,61.2h-8v-9.5h-58v9.5h-8
					V44.8h33.3c-0.7-1.7-1.5-3.3-2.2-4.6l7.2-1.2l-1.5-0.9c4-5.2,6.9-10.7,8.6-16.6l7.8,1.7c-0.5,1.5-0.9,2.8-1.5,4.2h23.9v7.1h-14
					c1.4,1.9,2.5,3.8,3.4,5.5l-7.2,2.7c-1.4-2.8-3-5.5-4.9-8.2h-4.4c-1.5,2.8-3.1,5.5-4.9,7.9l-4.1-2.7c0.7,1.5,1.3,3.3,2,5.1H620
					V61.2z M608.1,73.6h-41.9v4.6h45.9v23H604V98h-37.7v3h-8.2V55.5h50V73.6z M600.1,67v-5h-33.9v5H600.1z M604,90.8v-6.2h-37.7v6.2
					H604z"/>
			</g>
			<g>
				<path class="st0" d="M657,52.9V34.5h-9.8v-7.7H675v7.7h-9.7v18.4h8.7v7.8h-8.7v17.2c2.9-1,5.8-2.1,8.5-3.3v7.9
					c-7.9,3.1-16.3,5.8-25.4,7.9l-2-7.8c3.6-0.6,7.1-1.4,10.6-2.2V60.7h-8.5v-7.8H657z M721.7,24.6v41.1h-17.6v8.6h18.7v7.6h-18.7
					v8.9h21.8v7.8h-52v-7.8H696v-8.9h-18.8v-7.6H696v-8.6h-17.8V24.6H721.7z M696,41.7v-9.8h-10v9.8H696z M696,48.7h-10v9.8h10V48.7
					z M704.1,41.7h9.8v-9.8h-9.8V41.7z M713.9,48.7h-9.8v9.8h9.8V48.7z"/>
			</g>
			<g>
				<path class="st0" d="M762.1,80l-2.1-2.5c-1.1,9.1-2.8,16.9-5.2,23.2l-5.2-5.4c2.9-9.4,4.5-22.4,4.6-38.9V26.2
					c12.1-0.2,23-1.4,32.4-3.5l3.5,6.4c-8.6,1.7-18.2,2.7-28.9,3v3.8H790v16.7h-28.5v3.9c-0.1,5.2-0.3,9.9-0.7,14.4
					c2.7-4.6,5.1-10.1,7.1-16.8l6.4,1.4c-0.6,1.8-1.2,3.5-1.8,5.2h5.6c-0.7-2-1.4-3.8-2.1-5.5l6.4-1c0.7,2,1.5,4.1,2.1,6.5h7.4v6.2
					h-7.4v4.4h6v6h-6v4.6h6.2v6h-6.2V92h7.9v3c4.5-2.9,8.3-6.2,11.3-10l5.1,4.5c-3.3,4.3-7.4,8.1-12.2,11.3l-4.2-5.3v2.8h-21.1v2.7
					H765V75.8C764,77.3,763.1,78.7,762.1,80z M782.6,46.6V42h-21.2v4.6H782.6z M778.4,66.7h-7v4.4h7V66.7z M778.4,77.1h-7v4.6h7
					V77.1z M778.4,92v-4.3h-7V92H778.4z M804.8,38.8c0.7-2.3,1.2-4.6,1.5-7h-13.5v-7h35.6v7h-14.2c-0.4,2.4-0.9,4.8-1.5,7h13.5V85
					h-8.1c4.6,3.5,8.4,7,11.7,10.7l-5.2,5.1c-2.9-3.6-6.9-7.4-11.9-11.4l4.6-4.3h-22.2V38.8H804.8z M818.6,52.2v-6.5h-15.9v6.5
					H818.6z M818.6,65.4v-6.5h-15.9v6.5H818.6z M818.6,72h-15.9v6.1h15.9V72z"/>
			</g>
			<g>
				<path class="st0" d="M889.2,58.8h-23.8v42.1h-8.1V24.4h31.9L889.2,58.8L889.2,58.8z M881.1,31.6h-15.7v6.6h15.7V31.6z
					 M865.4,51.6h15.7v-6.4h-15.7V51.6z M909.6,64v27h-34.2V64H909.6z M901.7,71.2h-18.4v12.6h18.4V71.2z M895.3,58.7V24.4h32.4v68
					c0,5.5-2.8,8.3-8.3,8.3c-2.8,0-5.7-0.1-8.4-0.3l-2.1-7.8c2.7,0.3,5.2,0.4,7.5,0.4c2.2,0,3.4-1.1,3.4-3.3v-31
					C919.8,58.7,895.3,58.7,895.3,58.7z M919.7,31.8h-16.3v6.4h16.3V31.8z M903.5,51.5h16.3v-6.4h-16.3V51.5z"/>
			</g>
		</g>
	</g>
</g>
</svg>
